<?xml version="1.0" encoding="utf-8"?><svg xmlns="http://www.w3.org/2000/svg" xmlns:xlink="http://www.w3.org/1999/xlink"><symbol id="endpoint" viewBox="0 0 12.3 16.3"><style>.ast0{fill:#ef4065}.ast1{fill:#66cbe1}</style><path id="aXMLID_2_" transform="rotate(45.51 6.168 10.11)" class="ast0" d="M1.8 5.7h8.7v8.7H1.8z"/><path id="aXMLID_1_" transform="rotate(45.51 6.168 6.168)" class="ast1" d="M1.8 1.8h8.7v8.7H1.8z"/></symbol><symbol id="fuji" viewBox="0 0 960 225"><style>.bst0{fill:#333}</style><path id="bXMLID_274_" class="bst0" d="M0 256L422.9 0h115.9l421 256z"/></symbol><symbol id="logo" viewBox="0 0 322.9 341.8"><style>.cst0,.cst1{fill:#ef4065;stroke:#ef4065;stroke-miterlimit:10}.cst1{fill:#66cbe1;stroke:#66cbe1}.cst2{fill:#ef4065}.cst3{fill:none;stroke:#ef4065;stroke-miterlimit:10}.cst4{fill:#66cbe1}.cst5,.cst6,.cst7{fill:none;stroke:#66cbe1;stroke-miterlimit:10}.cst6,.cst7{stroke:#ef4065;stroke-width:5}.cst7{stroke:#66cbe1}</style><g id="cXMLID_462_"><g id="cXMLID_226_"><path id="cXMLID_230_" class="cst0" d="M150.6 108.5l-70.3 71.4c-.3.3-.3.7 0 1l71.1 70.4c.5.5 1.2.1 1.2-.5l-.1-57.8c0-.2-.1-.4-.2-.5l-12-12.1c-.3-.3-.3-.7 0-1l11.8-12.1c.1-.1.2-.3.2-.5l-.4-57.9c0-.6-.8-.9-1.3-.4z"/><path id="cXMLID_227_" class="cst0" d="M152.8 251.2c0 .6-.8 1-1.2.5L80 180.9c-.3-.3-.3-.7 0-1l70.8-71.9c.5-.5 1.2-.1 1.2.5l.4 58.4c0 .2-.1.4-.2.5l-11.7 12c-.3.3-.3.7 0 1l11.9 12c.1.1.2.3.2.5l.2 58.3zm-72.3-70.3l70.6 69.9c.5.5 1.2.1 1.2-.5l-.1-57.3c0-.2-.1-.4-.2-.5l-12-12c-.3-.3-.3-.7 0-1l11.8-12.2c.1-.1.2-.3.2-.5l-.3-57.3c0-.6-.8-1-1.2-.5l-69.9 71c-.3.2-.3.7-.1.9z"/></g></g><g id="cXMLID_91_"><g id="cXMLID_231_"><path id="cXMLID_235_" class="cst1" d="M150.6 99.8l-70.3 71.4c-.3.3-.3.7 0 1l71.1 70.4c.5.5 1.2.1 1.2-.5l-.1-57.8c0-.2-.1-.4-.2-.5l-12-12.1c-.3-.3-.3-.7 0-1l11.8-12.1c.1-.1.2-.3.2-.5l-.4-57.9c0-.5-.8-.8-1.3-.4z"/><path id="cXMLID_232_" class="cst1" d="M152.8 242.6c0 .6-.8 1-1.2.5L80 172.3c-.3-.3-.3-.7 0-1l70.8-71.9c.5-.5 1.2-.1 1.2.5l.4 58.4c0 .2-.1.4-.2.5l-11.7 12c-.3.3-.3.7 0 1l11.9 12c.1.1.2.3.2.5l.2 58.3zm-72.3-70.3l70.6 69.9c.5.5 1.2.1 1.2-.5l-.1-57.3c0-.2-.1-.4-.2-.5l-12-12.1c-.3-.3-.3-.7 0-1l11.8-12.2c.1-.1.2-.3.2-.5l-.3-57.3c0-.6-.8-1-1.2-.5l-69.9 71c-.3.3-.3.7-.1 1z"/></g></g><g id="cXMLID_467_"><path id="cXMLID_141_" class="cst2" d="M174.2 250.8l56.9-58.4c.3-.3.3-.7 0-1l-11-11.9c-.3-.3-.3-.7 0-1l10.7-11.7c.3-.3.7-.7.4-1L173.4 108c-.5-.5-1.2-.1-1.2.5l.7 141.8c0 .7.8 1 1.3.5z"/><path id="cXMLID_120_" class="cst3" d="M174.2 250.8l56.9-58.4c.3-.3.3-.7 0-1l-11-11.9c-.3-.3-.3-.7 0-1l10.7-11.7c.3-.3.7-.7.4-1L173.4 108c-.5-.5-1.2-.1-1.2.5l.7 141.8c0 .7.8 1 1.3.5z"/></g><g id="cXMLID_90_"><path id="cXMLID_157_" class="cst4" d="M174.2 242.2l56.9-58.4c.3-.3.3-.7 0-1l-11-11.9c-.3-.3-.3-.7 0-1l10.7-11.7c.3-.3.7-.7.4-1l-57.7-57.7c-.5-.5-1.2-.1-1.2.5l.7 141.8c-.1.5.7.8 1.2.4z"/><path id="cXMLID_156_" class="cst5" d="M174.2 242.2l56.9-58.4c.3-.3.3-.7 0-1l-11-11.9c-.3-.3-.3-.7 0-1l10.7-11.7c.3-.3.7-.7.4-1l-57.7-57.7c-.5-.5-1.2-.1-1.2.5l.7 141.8c-.1.5.7.8 1.2.4z"/></g><g id="cXMLID_468_"><path id="cXMLID_213_" transform="rotate(-44.473 161.445 180.404)" class="cst6" d="M49.8 68.7h223.3V292H49.8z"/></g><g id="cXMLID_89_"><path id="cXMLID_215_" transform="rotate(-44.473 161.444 161.44)" class="cst7" d="M49.8 49.8h223.3v223.3H49.8z"/></g></symbol></svg>