<?xml version="1.0" encoding="utf-8"?>
<!-- Generator: Adobe Illustrator 19.0.0, SVG Export Plug-In . SVG Version: 6.00 Build 0)  -->
<svg version="1.1" id="LOGO" xmlns="http://www.w3.org/2000/svg" xmlns:xlink="http://www.w3.org/1999/xlink" x="0px" y="0px"
	 viewBox="0 0 322.9 341.8" style="enable-background:new 0 0 322.9 341.8;" xml:space="preserve">
<style type="text/css">
	.st0{fill:#EF4065;stroke:#EF4065;stroke-miterlimit:10;}
	.st1{fill:#66CBE1;stroke:#66CBE1;stroke-miterlimit:10;}
	.st2{fill:#EF4065;}
	.st3{fill:none;stroke:#EF4065;stroke-miterlimit:10;}
	.st4{fill:#66CBE1;}
	.st5{fill:none;stroke:#66CBE1;stroke-miterlimit:10;}
	.st6{fill:none;stroke:#EF4065;stroke-width:5;stroke-miterlimit:10;}
	.st7{fill:none;stroke:#66CBE1;stroke-width:5;stroke-miterlimit:10;}
</style>
<g id="XMLID_462_">
	<g id="XMLID_226_">
		<path id="XMLID_230_" class="st0" d="M150.6,108.5l-70.3,71.4c-0.3,0.3-0.3,0.7,0,1l71.1,70.4c0.5,0.5,1.2,0.1,1.2-0.5l-0.1-57.8
			c0-0.2-0.1-0.4-0.2-0.5l-12-12.1c-0.3-0.3-0.3-0.7,0-1l11.8-12.1c0.1-0.1,0.2-0.3,0.2-0.5l-0.4-57.9
			C151.9,108.3,151.1,108,150.6,108.5z"/>
		<path id="XMLID_227_" class="st0" d="M152.8,251.2c0,0.6-0.8,1-1.2,0.5L80,180.9c-0.3-0.3-0.3-0.7,0-1l70.8-71.9
			c0.5-0.5,1.2-0.1,1.2,0.5l0.4,58.4c0,0.2-0.1,0.4-0.2,0.5l-11.7,12c-0.3,0.3-0.3,0.7,0,1l11.9,12c0.1,0.1,0.2,0.3,0.2,0.5
			L152.8,251.2z M80.5,180.9l70.6,69.9c0.5,0.5,1.2,0.1,1.2-0.5l-0.1-57.3c0-0.2-0.1-0.4-0.2-0.5L140,180.5c-0.3-0.3-0.3-0.7,0-1
			l11.8-12.2c0.1-0.1,0.2-0.3,0.2-0.5l-0.3-57.3c0-0.6-0.8-1-1.2-0.5l-69.9,71C80.3,180.2,80.3,180.7,80.5,180.9z"/>
	</g>
</g>
<g id="XMLID_91_">
	<g id="XMLID_231_">
		<path id="XMLID_235_" class="st1" d="M150.6,99.8l-70.3,71.4c-0.3,0.3-0.3,0.7,0,1l71.1,70.4c0.5,0.5,1.2,0.1,1.2-0.5l-0.1-57.8
			c0-0.2-0.1-0.4-0.2-0.5l-12-12.1c-0.3-0.3-0.3-0.7,0-1l11.8-12.1c0.1-0.1,0.2-0.3,0.2-0.5l-0.4-57.9
			C151.9,99.7,151.1,99.4,150.6,99.8z"/>
		<path id="XMLID_232_" class="st1" d="M152.8,242.6c0,0.6-0.8,1-1.2,0.5L80,172.3c-0.3-0.3-0.3-0.7,0-1l70.8-71.9
			c0.5-0.5,1.2-0.1,1.2,0.5l0.4,58.4c0,0.2-0.1,0.4-0.2,0.5l-11.7,12c-0.3,0.3-0.3,0.7,0,1l11.9,12c0.1,0.1,0.2,0.3,0.2,0.5
			L152.8,242.6z M80.5,172.3l70.6,69.9c0.5,0.5,1.2,0.1,1.2-0.5l-0.1-57.3c0-0.2-0.1-0.4-0.2-0.5L140,171.8c-0.3-0.3-0.3-0.7,0-1
			l11.8-12.2c0.1-0.1,0.2-0.3,0.2-0.5l-0.3-57.3c0-0.6-0.8-1-1.2-0.5l-69.9,71C80.3,171.6,80.3,172,80.5,172.3z"/>
	</g>
</g>
<g id="XMLID_467_">
	<path id="XMLID_141_" class="st2" d="M174.2,250.8l56.9-58.4c0.3-0.3,0.3-0.7,0-1l-11-11.9c-0.3-0.3-0.3-0.7,0-1l10.7-11.7
		c0.3-0.3,0.7-0.7,0.4-1L173.4,108c-0.5-0.5-1.2-0.1-1.2,0.5l0.7,141.8C172.9,251,173.7,251.3,174.2,250.8z"/>
	<path id="XMLID_120_" class="st3" d="M174.2,250.8l56.9-58.4c0.3-0.3,0.3-0.7,0-1l-11-11.9c-0.3-0.3-0.3-0.7,0-1l10.7-11.7
		c0.3-0.3,0.7-0.7,0.4-1L173.4,108c-0.5-0.5-1.2-0.1-1.2,0.5l0.7,141.8C172.9,251,173.7,251.3,174.2,250.8z"/>
</g>
<g id="XMLID_90_">
	<path id="XMLID_157_" class="st4" d="M174.2,242.2l56.9-58.4c0.3-0.3,0.3-0.7,0-1l-11-11.9c-0.3-0.3-0.3-0.7,0-1l10.7-11.7
		c0.3-0.3,0.7-0.7,0.4-1l-57.7-57.7c-0.5-0.5-1.2-0.1-1.2,0.5l0.7,141.8C172.9,242.3,173.7,242.6,174.2,242.2z"/>
	<path id="XMLID_156_" class="st5" d="M174.2,242.2l56.9-58.4c0.3-0.3,0.3-0.7,0-1l-11-11.9c-0.3-0.3-0.3-0.7,0-1l10.7-11.7
		c0.3-0.3,0.7-0.7,0.4-1l-57.7-57.7c-0.5-0.5-1.2-0.1-1.2,0.5l0.7,141.8C172.9,242.3,173.7,242.6,174.2,242.2z"/>
</g>
<g id="XMLID_468_">
	
		<rect id="XMLID_213_" x="49.8" y="68.7" transform="matrix(0.7136 -0.7006 0.7006 0.7136 -80.1478 164.7816)" class="st6" width="223.3" height="223.3"/>
</g>
<g id="XMLID_89_">
	
		<rect id="XMLID_215_" x="49.8" y="49.8" transform="matrix(0.7136 -0.7006 0.7006 0.7136 -66.8615 159.3494)" class="st7" width="223.3" height="223.3"/>
</g>
</svg>
